<svg version="1.2" xmlns="http://www.w3.org/2000/svg" viewBox="0 0 254 80" width="254" height="80"><style>.a{fill:#ffa133}</style><path fill-rule="evenodd" class="a" d="m94.8-8012.9c-0.6-2.8-1.3-5.3-1.7-7.9-2.1-12.1 5.3-23.4 17.3-26.3 3.9-1 7.8-2 11.8-2.6 11.7-1.9 23.2 6.1 25.7 17.7 0.4 2 0.9 4 1.4 6.2 1.5-0.3 2.8-0.5 4.1-0.8q40.7-9.7 81.4-19.3c1.4-0.3 2.9-0.7 4.4-0.8 4.6-0.3 8 2.6 8.7 7.2 0.6 3.9-2.2 7.8-6.4 8.8-10.8 2.6-21.6 5.1-32.4 7.7q-24.7 5.8-49.3 11.6-37.3 8.8-74.6 17.5-24.4 5.8-48.8 11.5c-8.6 2.1-17.3 4.1-25.9 6.1-4.9 1.2-9.2-1.4-10.3-5.9-1-4.6 1.7-8.8 6.6-9.9q42.4-10 84.7-20c1.1-0.3 2.1-0.5 3.3-0.8zm38.7-9.1q0 0 0 0 0 0 0 0zm-1.7-6.6c-1-3.7-4.3-5.7-8-5q-4.9 1.1-9.7 2.4c-2.7 0.7-4.8 2.4-4.8 5.2 0 3.1 0.7 6.2 1.2 9.4 7.8-1.8 15.3-3.6 23-5.4-0.6-2.3-1.1-4.5-1.7-6.6zm-37 5227.7c-0.6-2.8-1.3-5.3-1.7-7.9-2.1-12.1 5.3-23.4 17.3-26.3 3.9-1 7.8-2 11.8-2.6 11.7-1.9 23.2 6.1 25.7 17.7 0.4 2 0.9 4 1.4 6.2 1.5-0.3 2.8-0.5 4.1-0.8q40.7-9.7 81.4-19.3c1.4-0.3 2.9-0.7 4.4-0.8 4.6-0.3 8 2.6 8.7 7.2 0.6 3.9-2.2 7.8-6.4 8.8-10.8 2.6-21.6 5.1-32.4 7.7q-24.7 5.8-49.3 11.6-37.3 8.8-74.6 17.5-24.4 5.8-48.8 11.5c-8.6 2.1-17.3 4.1-25.9 6.1-4.9 1.2-9.2-1.4-10.3-5.9-1.1-4.6 1.7-8.8 6.6-9.9q42.4-10 84.7-20c1.1-0.3 2.1-0.5 3.3-0.8zm38.7-9.1q0 0 0 0 0 0 0 0zm-1.7-6.6c-1-3.7-4.3-5.7-8-5q-4.9 1.1-9.7 2.4c-2.7 0.7-4.8 2.4-4.8 5.2 0 3.1 0.7 6.2 1.2 9.4 7.8-1.8 15.3-3.6 22.9-5.4-0.5-2.3-1-4.5-1.6-6.6zm-37 1137.7c-0.6-2.8-1.3-5.3-1.7-7.9-2.1-12.1 5.3-23.4 17.3-26.3 3.9-1 7.8-2 11.8-2.6 11.7-1.9 23.2 6.1 25.7 17.7 0.4 2 0.9 4 1.4 6.2 1.5-0.3 2.8-0.5 4-0.8q40.8-9.7 81.5-19.3c1.4-0.3 2.9-0.7 4.4-0.8 4.6-0.3 8 2.6 8.7 7.2 0.6 3.9-2.2 7.8-6.4 8.8-10.8 2.6-21.6 5.1-32.4 7.7q-24.7 5.8-49.3 11.6-37.3 8.8-74.6 17.5-24.4 5.8-48.8 11.5c-8.6 2.1-17.3 4.1-25.9 6.1-4.9 1.2-9.2-1.4-10.3-5.9-1.1-4.6 1.7-8.8 6.6-9.9q42.4-10 84.7-20c1-0.3 2.1-0.5 3.3-0.8zm38.6-9.1q0 0 0 0 0 0 0 0zm-1.6-6.6c-1-3.7-4.3-5.7-8-4.9q-4.9 1-9.8 2.3c-2.6 0.7-4.7 2.4-4.7 5.2-0.1 3.1 0.7 6.2 1.1 9.4 7.9-1.8 15.4-3.6 23-5.4-0.5-2.3-1-4.5-1.6-6.6zm-37 1517.8c-0.6-2.9-1.3-5.4-1.7-8-2.1-12.1 5.3-23.4 17.3-26.3 3.9-1 7.8-2 11.8-2.6 11.7-1.9 23.2 6.1 25.7 17.7 0.4 2 0.9 4 1.4 6.2 1.5-0.3 2.8-0.5 4-0.8q40.8-9.7 81.5-19.3c1.4-0.3 2.9-0.7 4.4-0.8 4.6-0.3 8 2.6 8.7 7.2 0.6 3.9-2.2 7.8-6.4 8.8-10.8 2.6-21.6 5.1-32.4 7.7q-24.7 5.8-49.3 11.6-37.3 8.8-74.6 17.6-24.4 5.7-48.8 11.4c-8.6 2.1-17.3 4.1-25.9 6.1-4.9 1.2-9.2-1.4-10.3-5.9-1.1-4.6 1.7-8.8 6.6-9.9q42.4-10 84.7-20c1-0.3 2.1-0.5 3.3-0.7zm38.6-9.2q0 0 0 0 0 0 0 0zm-1.6-6.6c-1-3.7-4.3-5.7-8-4.9q-4.9 1-9.8 2.3c-2.6 0.7-4.7 2.4-4.7 5.2-0.1 3.1 0.7 6.2 1.1 9.4 7.9-1.8 15.4-3.6 23-5.4-0.5-2.3-1-4.5-1.6-6.6zm-37 2727.8c-0.6-2.9-1.3-5.4-1.7-8-2.2-12.1 5.3-23.4 17.3-26.3 3.9-1 7.8-2 11.8-2.6 11.7-1.9 23.2 6.1 25.7 17.7 0.4 2 0.9 4 1.4 6.2 1.5-0.3 2.8-0.5 4-0.8q40.7-9.7 81.5-19.3c1.4-0.3 2.9-0.7 4.4-0.8 4.6-0.3 8 2.6 8.7 7.2 0.6 3.9-2.2 7.8-6.4 8.8-10.8 2.6-21.6 5.1-32.5 7.7q-24.6 5.8-49.2 11.6-37.3 8.8-74.6 17.6-24.4 5.7-48.8 11.4c-8.6 2.1-17.3 4.1-25.9 6.1-4.9 1.2-9.2-1.4-10.3-5.9-1.1-4.6 1.7-8.8 6.6-9.9q42.4-10 84.7-20c1-0.3 2.1-0.5 3.3-0.7zm38.6-9.2q0 0 0 0 0 0 0 0zm-1.6-6.6c-1-3.7-4.3-5.7-8-4.9q-4.9 1-9.8 2.3c-2.6 0.7-4.7 2.4-4.7 5.2-0.1 3.1 0.7 6.2 1.1 9.4 7.9-1.8 15.3-3.6 23-5.4-0.5-2.3-1-4.5-1.6-6.6zm-37 1611.8c-0.7-2.9-1.3-5.4-1.7-8-2.2-12.1 5.3-23.4 17.3-26.3 3.9-1 7.8-2 11.8-2.6 11.7-1.9 23.2 6.1 25.7 17.7 0.4 2 0.9 4 1.4 6.2 1.4-0.3 2.7-0.5 4-0.8q40.7-9.6 81.4-19.3c1.5-0.3 3-0.7 4.5-0.8 4.6-0.3 8 2.6 8.7 7.2 0.6 3.9-2.2 7.8-6.4 8.8-10.8 2.6-21.6 5.1-32.5 7.7q-24.6 5.8-49.2 11.6-37.3 8.8-74.6 17.6-24.4 5.7-48.8 11.4c-8.7 2.1-17.3 4.1-26 6.1-4.8 1.2-9.1-1.4-10.2-5.9-1.1-4.6 1.7-8.8 6.6-9.9q42.4-10 84.7-20c1-0.3 2.1-0.5 3.3-0.7zm38.6-9.2q0 0 0 0 0 0 0 0zm-1.6-6.6c-1-3.7-4.3-5.7-8-4.9q-4.9 1-9.8 2.3c-2.6 0.7-4.7 2.4-4.7 5.2-0.1 3.1 0.7 6.2 1.1 9.4 7.9-1.8 15.3-3.6 23-5.4-0.6-2.3-1-4.5-1.6-6.6zm85-11951.4q0 0 0 0zm37.2 0v15.4h-21.5c0 0.8 0 1.4 0 2.1 0 12.8 0 25.7 0 38.6-0.1 12-9.8 22.7-21.8 23.8-0.8 0.1-1.7 0.1-2.5 0.1q-82.6 0-165.3 0c-11.8 0-21.9-8.4-24-20-0.2-1.5-0.3-3-0.3-4.5q0-19 0-37.9v-2.2h-18.6v-15.4h34.1q0 1.1 0 2.2 0 26.2 0 52.4c0 6.3 3.6 10 10 10 54.3 0 108.6-0.1 162.9 0 5.3 0 10-3.9 9.9-9.9-0.2-17.5-0.1-35.1-0.1-52.6 0-0.7 0-1.3 0-2.1zm-37.1 5212q0 0 0 0zm37.1 0v15.4h-21.5c0 0.8 0 1.4 0 2.1 0 12.8 0.1 25.7 0 38.6 0 12-9.7 22.7-21.7 23.8-0.8 0.1-1.7 0.1-2.5 0.1q-82.7 0-165.3 0c-11.8 0-21.9-8.4-24-20-0.2-1.5-0.3-3-0.3-4.5q-0.1-18.9-0.1-37.9v-2.2h-18.6v-15.4h34.1q0 1.1 0 2.2 0 26.2 0 52.4c0 6.3 3.7 10 10 10 54.4 0 108.7-0.1 163 0 5.3 0 10-3.9 9.9-9.9-0.2-17.5-0.1-35.1-0.1-52.6 0-0.7 0-1.3 0-2.1zm-37.1 1122q0 0 0 0zm37.1 0v15.4h-21.5c0 0.8 0 1.4 0 2.1 0 12.8 0 25.7 0 38.6 0 12-9.7 22.7-21.7 23.8-0.9 0.1-1.7 0.1-2.5 0.1q-82.7 0-165.3 0c-11.9 0-22-8.4-24-20-0.3-1.5-0.4-3-0.4-4.5q0-18.9 0-37.9v-2.2h-18.6v-15.4h34.1q0 1.1 0 2.2 0 26.2 0 52.4c0 6.3 3.7 10 10 10 54.3 0 108.6-0.1 163 0 5.3 0.1 9.9-3.9 9.9-9.9-0.2-17.5-0.1-35.1-0.1-52.6 0-0.7 0-1.3 0-2.1zm-37.1 1502q0 0 0 0zm37.1 0v15.4h-21.5c0 0.8 0 1.4 0 2.1 0 12.8 0 25.7 0 38.6 0 12-9.7 22.7-21.8 23.8-0.8 0.1-1.6 0.1-2.5 0.1q-82.6 0-165.3 0c-11.8 0-21.9-8.4-23.9-20-0.3-1.5-0.4-3-0.4-4.5q0-18.9 0-37.9v-2.2h-18.6v-15.4h34.1q0 1.1 0 2.2 0 26.2 0 52.4c0 6.3 3.7 10 10 10 54.3 0 108.6-0.1 162.9 0 5.4 0.1 10-3.9 9.9-9.9-0.2-17.5 0-35.1 0-52.6 0-0.7 0-1.3 0-2.1zm-37.2 2712q0 0 0 0zm37.2 0v15.4h-21.5c0 0.8 0 1.4 0 2.1 0 12.8 0 25.7 0 38.6-0.1 12-9.8 22.7-21.8 23.8-0.8 0.1-1.7 0.1-2.5 0.1q-82.6 0-165.3 0c-11.8 0-21.9-8.4-24-20-0.2-1.5-0.3-3-0.3-4.5q-0.1-18.9 0-37.9v-2.2h-18.6v-15.4h34.1q0 1.1 0 2.2 0 26.2 0 52.5c0 6.2 3.6 9.9 10 9.9 54.3 0 108.6-0.1 162.9 0 5.3 0.1 10-3.9 9.9-9.9-0.2-17.5-0.1-35.1-0.1-52.6 0-0.7 0-1.3 0-2.1zm-37.1 1596q0 0 0 0zm37.1 0v15.4h-21.5c0 0.8 0 1.4 0 2.1 0 12.8 0 25.7 0 38.6 0 12-9.7 22.7-21.7 23.8-0.8 0.1-1.7 0.1-2.5 0.1q-82.7 0-165.3 0c-11.8 0-21.9-8.4-24-20-0.2-1.5-0.3-3-0.3-4.5q-0.1-18.9-0.1-37.9v-2.2h-18.6v-15.4h34.1q0 1.1 0 2.2 0 26.2 0 52.5c0 6.2 3.7 9.9 10 9.9 54.4 0 108.7-0.1 163 0.1 5.3 0 10-4 9.9-10-0.2-17.5-0.1-35.1-0.1-52.6 0-0.7 0-1.3 0-2.1z"/></svg>