<svg version="1.2" xmlns="http://www.w3.org/2000/svg" viewBox="0 0 298 132" width="298" height="132"><style>.a{fill:#ffa133}</style><path fill-rule="evenodd" d="m28.6 66.4h-10.2v-5.5h17.5q0 0.4 0 0.9c0 1.9 0.1 3.9 0 5.8-0.2 3.6-1.8 6.6-4.3 9.1-3.3 3.4-7.4 5-12.1 5.3-9 0.5-16.7-5.8-18.8-14.3-1.8-7.4-0.3-14.1 5.1-19.7 3.8-3.9 8.6-5.5 14.1-5.1 3.6 0.2 6.9 1.1 9.8 3.3 1.2 0.9 2.3 1.9 3.5 3q-2.7 2.5-5 4.6c-1-0.8-1.8-1.8-2.8-2.5-4.8-3.3-11.6-2.8-15.4 3.2-3.7 5.9-2.7 13.9 2.3 18.3 4.9 4.4 11.9 2.7 14.8-1.2 1.1-1.5 1.6-3.2 1.5-5.2zm124.7-8.5c0.2-0.1 0.2-0.1 0.3-0.1q3.2 0 6.5 0v23.5h-6.8v-3c-0.2 0.1-0.3 0.2-0.3 0.3-4.1 4.5-11.2 4.4-15.4 0.7-3.4-3-4.5-6.9-4.1-11.3 0.2-2.8 1.3-5.3 3.3-7.4 2.5-2.7 5.7-3.8 9.4-3.5q4.1 0.4 7 3.5 0.1-0.1 0.1-0.1zm-6.3 18.3c3.8 0 6.5-2.7 6.5-6.5 0-3.9-2.7-6.8-6.4-6.8-3.8 0-6.5 2.8-6.5 6.7 0 3.9 2.6 6.6 6.4 6.6z"/><path fill-rule="evenodd" d="m56.2 73.5q2.4 1.2 4.9 2.4c-1.1 1.9-2.5 3.4-4.4 4.3-5.2 2.6-10.4 2.7-15.3-0.8-4.1-2.9-6-8-4.8-12.8 1.4-5.1 4.8-8.2 10-9.3 3.6-0.7 7-0.1 10 2 3.2 2.2 4.6 5.3 4.9 9 0.1 0.7 0 1.4 0 2.1h-18.1c-0.3 1.7 0.9 4 2.6 5.1 2.7 1.7 6.7 1.4 9-0.9 0.4-0.3 0.8-0.7 1.2-1.1zm-1.4-7c-0.1-2.4-2.9-4.7-5.8-4.5-3 0.2-5.6 2.4-5.4 4.5zm59.5 3.9h-18.2c0 2.1 0.8 3.7 2.4 4.9 2.5 1.9 6.6 1.7 9-0.4 0.3-0.3 0.6-0.5 0.8-0.8 0.4-0.6 0.9-0.6 1.5-0.2 1.1 0.6 2.3 1.2 3.5 1.8q0.2 0.1 0.5 0.3c-1.2 2-2.8 3.7-5 4.6-5 2.1-9.9 2.2-14.5-1-4.2-2.9-6-8-4.9-12.9 1-4.7 5.1-8.6 10-9.4 4.2-0.7 8.1 0.1 11.4 3.1 2.1 2 3.2 4.6 3.4 7.5 0.1 0.8 0.1 1.6 0.1 2.5zm-18-3.9h11.3c-0.3-2.3-2.4-4.6-5.8-4.5-3 0.1-5.3 2-5.5 4.5zm-8.9 14.8h-6.8q0-0.4 0-0.8 0-6.3 0-12.7c0-1.7-0.5-3.2-1.7-4.3-2.1-1.8-5.5-1.4-7.4 1q-1.1 1.4-1.1 3.2 0 6.4 0 12.9v0.7h-6.8v-23.4h6.7v2.5c0.4-0.3 0.6-0.5 0.8-0.7 4.6-4.6 12.3-2.5 14.8 1.1q1.5 2.2 1.5 4.8c0 5 0 10.1 0 15.1q0 0.3 0 0.6zm76.5-39.4h6.7v39.4h-6.7zm-47.5 15.9h6.7v3.2c3.4-4.2 7.4-5 12.1-2.7-1 1.9-1.9 3.8-2.8 5.7-1.3-0.7-2.5-1.1-3.9-1.1-3 0-5.3 2.3-5.3 5.3q-0.1 6.1-0.1 12.2v0.8h-6.7z"/><path fill-rule="evenodd" class="a" d="m280.4 95q0 0 0 0zm17.1 0v7.1h-9.9c0 0.4 0 0.7 0 1q0 8.9 0 17.8c0 5.6-4.5 10.5-10 11.1q-0.6 0-1.2 0-38.1 0-76.2 0c-5.5 0-10.1-3.9-11.1-9.3q-0.1-1-0.1-2-0.1-8.8 0-17.6v-1h-8.6v-7.1h15.7q0 0.5 0 1 0 12.1 0 24.3c0 2.9 1.7 4.6 4.6 4.6 25.1 0 50.1-0.1 75.2 0 2.4 0 4.6-1.8 4.6-4.6-0.1-8.1-0.1-16.2-0.1-24.4q0-0.4 0-0.9zm-72.2-77.8c-0.3-1.3-0.6-2.5-0.8-3.7-1-5.6 2.4-10.8 8-12.2 1.8-0.4 3.6-0.9 5.4-1.2 5.4-0.8 10.7 2.9 11.8 8.2 0.2 1 0.4 1.9 0.7 2.9 0.6-0.1 1.2-0.3 1.8-0.4q18.8-4.5 37.5-8.9c0.7-0.2 1.4-0.3 2.1-0.4 2.1-0.1 3.7 1.2 4 3.4 0.2 1.8-1.1 3.6-3 4q-7.4 1.8-14.9 3.6-11.4 2.6-22.7 5.3-17.2 4.1-34.3 8.1-11.3 2.7-22.5 5.3-6 1.5-11.9 2.9c-2.3 0.5-4.3-0.7-4.8-2.8-0.5-2.1 0.8-4 3.1-4.6q19.5-4.6 39-9.2c0.4-0.1 0.9-0.2 1.5-0.3zm17.8-4.3q0 0 0 0 0 0 0 0zm-0.8-3c-0.4-1.7-2-2.7-3.7-2.3q-2.2 0.5-4.5 1.1c-1.2 0.3-2.1 1.1-2.1 2.4-0.1 1.4 0.3 2.8 0.5 4.3 3.6-0.8 7-1.6 10.6-2.5-0.3-1-0.5-2-0.8-3zm-31.9 62.9c1.1 1.9 2.3 3.7 3.6 5.8-1.2 0.6-2.2 1.3-3.3 1.7-8.1 3.1-15.8 2.5-22.7-3.3-5.1-4.2-7.5-9.9-6.7-16.5 0.8-7.6 5.1-12.9 12-16 6.5-2.8 12.9-2.3 19.2 1 0.5 0.2 0.9 0.6 1.4 0.9-1.2 2-2.4 3.8-3.5 5.8-2.9-1.9-6.1-2.5-9.5-2.2-6.8 0.6-11.8 5.4-11.9 12.2-0.2 5.8 3.4 10.8 9.4 12.3 4.1 1 8 0.6 11.6-1.6 0.1 0 0.2-0.1 0.4-0.1zm68.1-6.6q0 0 0 0 0 0 0 0zm5.1-5.4c0.8-0.8 1.6-1.6 2.3-2.4 0.4-0.5 0.9-0.6 1.5-0.6 2.5 0.1 5.1 0 7.9 0-1.8 1.9-3.5 3.7-5.2 5.4-1.7 1.7-3.4 3.5-5.2 5.3 4 4.3 7.9 8.5 12 12.8-0.3 0-0.5 0.1-0.7 0.1q-3.7 0-7.3-0.1c-0.4 0-0.8-0.1-1-0.4q-4.4-4.7-8.8-9.4c-0.2-0.2-0.4-0.5-0.6-0.7l-0.2 0.1v10.4h-6.8v-39.4h6.7v24.2q0.1 0 0.3 0.1 2.6-2.7 5.1-5.4z"/><path fill-rule="evenodd" class="a" d="m255.5 82.1c-4.1-0.1-7.9-1.3-10.8-4.5-5.5-6.5-3-16.5 5-19.4 4.9-1.8 9.8-1.6 14.2 1.3 3.8 2.5 5.6 6.1 5.4 10.6-0.2 4.8-2.6 8.3-6.8 10.5-2.2 1.1-4.5 1.5-7 1.5zm0.1-19.2c-3.9 0-6.7 2.8-6.7 6.7-0.1 3.8 2.8 6.7 6.7 6.7 3.8 0 6.7-2.9 6.7-6.7 0-3.8-2.9-6.7-6.7-6.7z"/><path fill-rule="evenodd" class="a" d="m241.4 70.1c-0.2 4.7-2.5 8.6-7.3 10.6-5.4 2.3-10.6 2-15.4-1.4-7.1-5.1-6.3-16 1.3-20.3 5.4-2.9 12.5-2.4 17 1.2 3 2.5 4.4 5.6 4.4 9.9zm-7.1-0.5c0-3.8-2.8-6.7-6.7-6.7-3.8 0-6.6 2.8-6.6 6.7-0.1 3.9 2.7 6.7 6.6 6.7 3.9 0 6.7-2.8 6.7-6.7z"/></svg>