<svg version="1.2" xmlns="http://www.w3.org/2000/svg" viewBox="0 0 177 79" width="177" height="79"><style>.a{fill:#fff}.b{fill:#ffa133}</style><path fill-rule="evenodd" class="a" d="m16.9 40h-6v-3.2h10.4q0 0.2 0 0.5c-0.1 1.2 0 2.3-0.1 3.5-0.1 2.1-1 3.8-2.5 5.3-1.9 2-4.4 3-7.2 3.2-5.3 0.3-9.8-3.5-11.1-8.5-1-4.4-0.2-8.3 3-11.6 2.3-2.4 5.1-3.3 8.4-3.1 2.1 0.1 4.1 0.7 5.8 2 0.7 0.5 1.3 1.1 2 1.7q-1.6 1.5-2.9 2.8c-0.6-0.5-1.1-1.1-1.7-1.5-2.8-1.9-6.9-1.7-9.1 1.9-2.2 3.5-1.6 8.2 1.3 10.9 3 2.6 7.1 1.5 8.8-0.8 0.7-0.9 1-1.9 0.9-3.1zm73.8-5q0.1 0 0.2 0 1.9 0 3.8 0v13.8h-4v-1.7c-0.1 0-0.2 0.1-0.2 0.1-2.4 2.7-6.6 2.7-9.1 0.4-2-1.7-2.7-4-2.5-6.6 0.2-1.7 0.8-3.2 2-4.4 1.5-1.6 3.4-2.2 5.6-2q2.4 0.2 4.1 2 0.1 0 0.1-0.1zm-3.7 10.9c2.2 0 3.8-1.6 3.8-3.9 0-2.3-1.6-4-3.8-4-2.2 0-3.9 1.7-3.9 3.9 0 2.4 1.6 4 3.9 4z"/><path fill-rule="evenodd" class="a" d="m33.3 44.2q1.3 0.7 2.8 1.5c-0.6 1.1-1.4 2-2.6 2.5-3.1 1.5-6.1 1.6-9-0.5-2.5-1.7-3.6-4.7-2.8-7.5 0.8-3.1 2.8-4.9 5.9-5.5 2.1-0.5 4.1-0.1 5.9 1.2 1.9 1.2 2.7 3.1 2.9 5.3 0 0.4 0 0.8 0 1.2h-10.7c-0.2 1 0.5 2.4 1.5 3 1.6 1 4 0.8 5.3-0.5 0.3-0.2 0.5-0.4 0.8-0.7zm-0.9-4.1c0-1.4-1.7-2.8-3.4-2.7-1.8 0.1-3.3 1.4-3.2 2.7zm35.2 2.3h-10.8q0 1.8 1.4 2.9c1.5 1.1 4 1 5.4-0.2 0.1-0.2 0.3-0.3 0.4-0.5 0.3-0.4 0.6-0.4 0.9-0.1 0.7 0.3 1.4 0.7 2.1 1q0.1 0.1 0.3 0.2c-0.7 1.2-1.7 2.2-3 2.7-2.9 1.3-5.8 1.3-8.6-0.6-2.4-1.7-3.5-4.7-2.9-7.6 0.7-2.8 3.1-5.1 6-5.5 2.5-0.4 4.8 0 6.7 1.8 1.3 1.2 1.9 2.7 2 4.4 0.1 0.5 0.1 1 0.1 1.5zm-10.6-2.3h6.6c-0.1-1.4-1.4-2.7-3.4-2.7-1.8 0.1-3.1 1.2-3.2 2.7zm-5.3 8.7h-4q0-0.2-0.1-0.4 0.1-3.8 0-7.5c0-1-0.2-1.9-1-2.6-1.2-1.1-3.2-0.8-4.3 0.6q-0.7 0.8-0.7 1.9 0 3.8 0 7.6v0.4h-4v-13.8h4v1.5c0.2-0.2 0.3-0.3 0.4-0.4 2.8-2.8 7.3-1.5 8.8 0.7q0.9 1.2 0.9 2.8 0 4.4 0 8.9 0 0.1 0 0.3zm49.2-23.2v23.2h-4v-23.2zm-32.1 9.4h4v1.9c2-2.5 4.4-3 7.2-1.6q-0.9 1.7-1.7 3.4-1.1-0.7-2.3-0.7c-1.8 0-3.1 1.4-3.2 3.2q0 3.6 0 7.2v0.4h-4z"/><path fill-rule="evenodd" class="b" d="m165.9 56.9q0 0 0 0zm10.1 0v4.2h-5.9q0 0.4 0 0.6 0 5.3 0 10.6c0 3.3-2.6 6.2-5.9 6.5q-0.3 0-0.7 0-22.5 0-45.1 0c-3.2 0-6-2.3-6.5-5.4q-0.1-0.6-0.1-1.3 0-5.2 0-10.3v-0.6h-5.1v-4.3h9.3q0 0.3 0 0.6 0 7.2 0 14.4c0 1.7 1 2.7 2.7 2.7q22.3 0 44.5 0c1.4 0 2.7-1.1 2.7-2.7-0.1-4.8 0-9.6 0-14.4q0-0.3 0-0.6zm-42.8-46c-0.1-0.8-0.3-1.5-0.4-2.2-0.6-3.3 1.4-6.4 4.7-7.2 1.1-0.2 2.1-0.5 3.2-0.7 3.2-0.5 6.3 1.7 7 4.9 0.1 0.5 0.3 1.1 0.4 1.7q0.6-0.1 1.1-0.3 11.1-2.6 22.2-5.2c0.4-0.1 0.8-0.2 1.2-0.2 1.2-0.1 2.2 0.7 2.3 1.9 0.2 1.1-0.6 2.2-1.7 2.4q-4.4 1.1-8.8 2.1-6.8 1.6-13.5 3.2-10.1 2.4-20.3 4.8-6.6 1.6-13.3 3.1-3.5 0.9-7 1.7c-1.3 0.3-2.5-0.4-2.8-1.6-0.3-1.3 0.4-2.4 1.8-2.7q11.5-2.8 23.1-5.5 0.4-0.1 0.8-0.2zm10.6-2.5q0 0 0 0 0 0 0 0zm-0.5-1.8c-0.3-1-1.1-1.6-2.2-1.3q-1.3 0.2-2.6 0.6c-0.7 0.2-1.3 0.7-1.3 1.4 0 0.9 0.2 1.7 0.3 2.6 2.1-0.5 4.2-1 6.3-1.5-0.2-0.6-0.3-1.2-0.5-1.8zm-18.9 37.2c0.7 1.1 1.4 2.2 2.1 3.4-0.6 0.4-1.2 0.8-1.9 1.1-4.8 1.8-9.3 1.4-13.4-2-3-2.5-4.4-5.8-4-9.8 0.5-4.4 3-7.6 7.1-9.4 3.9-1.7 7.7-1.4 11.4 0.6 0.3 0.1 0.5 0.3 0.8 0.5-0.7 1.2-1.4 2.3-2.1 3.4-1.7-1.1-3.6-1.5-5.6-1.3-4 0.4-6.9 3.2-7 7.3-0.1 3.4 2 6.3 5.6 7.2 2.4 0.6 4.7 0.4 6.8-0.9q0.1 0 0.2-0.1zm40.3-3.9q0 0 0 0 0 0 0 0zm3.1-3.2c0.4-0.5 0.9-0.9 1.3-1.4 0.2-0.3 0.5-0.3 0.9-0.3 1.5 0 3 0 4.6 0-1 1.1-2 2.1-3 3.1q-1.5 1.6-3.1 3.2c2.4 2.5 4.7 5 7.1 7.5-0.2 0.1-0.3 0.1-0.4 0.1q-2.2 0-4.4 0c-0.2 0-0.4-0.1-0.5-0.3q-2.6-2.8-5.2-5.6-0.2-0.2-0.4-0.4l-0.1 0.1v6.2h-4v-23.3h4v14.3q0 0 0.1 0 1.5-1.6 3.1-3.2z"/><path fill-rule="evenodd" class="b" d="m151.1 49.3c-2.4 0-4.7-0.7-6.3-2.7-3.3-3.8-1.8-9.7 2.9-11.4 2.9-1.1 5.8-0.9 8.4 0.8 2.3 1.4 3.3 3.6 3.2 6.2-0.1 2.9-1.5 4.9-4.1 6.2-1.2 0.7-2.6 0.9-4.1 0.9zm4-7.4c0-2.2-1.7-3.9-3.9-3.9-2.2 0-4 1.7-4 3.9 0 2.2 1.8 4 4 4 2.2 0 3.9-1.8 3.9-4z"/><path fill-rule="evenodd" class="b" d="m142.8 42.2c-0.1 2.8-1.5 5.1-4.4 6.3-3.1 1.4-6.2 1.2-9-0.8-4.2-3.1-3.8-9.5 0.8-12 3.1-1.8 7.3-1.5 10 0.7 1.7 1.4 2.6 3.3 2.6 5.8zm-4.2-0.3c0-2.2-1.7-3.9-3.9-3.9-2.3 0-4 1.6-4 3.9 0 2.3 1.6 4 3.9 4 2.3 0 4-1.7 4-4z"/></svg>