<svg version="1.2" xmlns="http://www.w3.org/2000/svg" viewBox="0 0 89 66" width="89" height="66"><style>.a{fill:#ffa133}</style><path fill-rule="evenodd" class="a" d="m76 37.8q0 0 0 0zm12.9 0v5.3h-7.5q0 0.4 0 0.8 0 6.7 0 13.4c0 4.2-3.4 7.9-7.6 8.3q-0.4 0.1-0.8 0.1-28.7 0-57.4 0c-4.1 0-7.6-3-8.4-7q-0.1-0.8-0.1-1.6 0-6.6 0-13.2v-0.7h-6.5v-5.4h11.9q0 0.4 0 0.7 0 9.2 0 18.3c0 2.2 1.3 3.5 3.5 3.5 18.8 0 37.7 0 56.6 0 1.8 0 3.4-1.4 3.4-3.5-0.1-6.1 0-12.2 0-18.3q0-0.3 0-0.7zm-54.4-24.9c-0.2-1-0.5-1.8-0.6-2.7-0.7-4.3 1.8-8.2 6-9.2 1.3-0.3 2.7-0.7 4.1-0.9 4-0.7 8 2.1 8.9 6.2 0.1 0.7 0.3 1.4 0.5 2.1q0.7-0.1 1.4-0.3 14.1-3.3 28.2-6.7c0.5-0.1 1-0.2 1.5-0.2 1.6-0.1 2.8 0.9 3.1 2.5 0.2 1.3-0.8 2.7-2.3 3q-5.6 1.4-11.2 2.7-8.6 2-17.1 4-12.9 3.1-25.8 6.1-8.5 2-17 4-4.4 1.1-8.9 2.1c-1.7 0.4-3.2-0.4-3.6-2-0.4-1.6 0.6-3.1 2.3-3.5q14.7-3.4 29.3-6.9 0.6-0.1 1.2-0.3zm13.4-3.2q0 0 0 0 0 0 0 0zm-0.6-2.3c-0.3-1.2-1.5-1.9-2.8-1.7q-1.7 0.4-3.3 0.8c-1 0.3-1.7 0.9-1.7 1.8 0 1.1 0.3 2.2 0.4 3.3 2.7-0.6 5.3-1.2 8-1.8-0.2-0.9-0.4-1.6-0.6-2.4z"/></svg>