<svg version="1.2" xmlns="http://www.w3.org/2000/svg" viewBox="0 0 161 225" width="161" height="225"><defs><clipPath clipPathUnits="userSpaceOnUse" id="cp1"><path d="m38.2 83.41c-0.01-23.37 19.08-42.47 42.39-42.39 23.31 0.08 42.19 19.02 42.21 42.35 0.03 23.41-18.95 42.36-42.38 42.33-23.33-0.04-42.2-18.94-42.22-42.29z"/></clipPath><clipPath clipPathUnits="userSpaceOnUse" id="cp2"><path d="m80.93 3c5.08 3.33 10.16 6.68 15.27 9.95 0.46 0.29 1.23 0.18 1.84 0.1 5.21-0.62 10.42-1.23 15.63-1.93 1.32-0.18 2.04 0.26 2.71 1.39q3.97 6.68 8.15 13.22c0.52 0.81 1.46 1.56 2.36 1.88q7.4 2.68 14.88 5.1c1.18 0.39 1.68 0.9 1.8 2.19q0.72 8.05 1.7 16.08c0.1 0.81 0.65 1.7 1.24 2.3q5.54 5.6 11.24 11.04c0.91 0.88 1.04 1.61 0.61 2.76-1.81 4.85-3.6 9.7-5.25 14.6-0.35 1.03-0.35 2.38-0.01 3.41 1.65 4.9 3.43 9.76 5.25 14.59 0.43 1.15 0.31 1.88-0.6 2.76q-5.7 5.45-11.21 11.08c-0.66 0.69-1.18 1.76-1.3 2.71-0.65 5.28-1.11 10.58-1.79 15.86-0.1 0.72-0.98 1.67-1.71 1.94-4.92 1.8-9.92 3.39-14.85 5.17-0.9 0.33-1.84 1.07-2.36 1.88q-4.14 6.44-8.05 13.03c-0.74 1.22-1.4 1.76-2.99 1.52-5.05-0.76-10.13-1.33-15.21-1.81-1.09-0.1-2.4 0.24-3.34 0.81-4.42 2.69-8.77 5.5-13.1 8.34-0.99 0.65-1.69 0.62-2.66-0.01-4.33-2.84-8.68-5.65-13.11-8.34-0.94-0.57-2.25-0.9-3.34-0.8q-7.73 0.73-15.42 1.83c-1.41 0.2-2.02-0.27-2.67-1.37-2.59-4.31-5.2-8.62-7.96-12.83-0.67-1.03-1.82-2-2.95-2.42-4.72-1.75-9.49-3.35-14.29-4.86-1.47-0.47-1.91-1.23-2.03-2.71-0.45-5.22-1.04-10.44-1.68-15.65-0.1-0.81-0.66-1.7-1.25-2.3q-5.53-5.61-11.21-11.07c-0.9-0.87-1.05-1.59-0.62-2.76q2.79-7.35 5.34-14.79c0.3-0.91 0.3-2.1-0.01-3.01q-2.56-7.44-5.34-14.8c-0.43-1.15-0.3-1.88 0.62-2.76 3.7-3.52 7.37-7.08 10.92-10.75 0.8-0.83 1.44-2.1 1.58-3.24 0.69-5.2 1.22-10.42 1.69-15.65 0.12-1.28 0.79-1.62 1.81-1.95 4.83-1.63 9.68-3.22 14.46-5.01 1.14-0.43 2.29-1.36 2.96-2.38 2.73-4.15 5.32-8.38 7.84-12.66 0.76-1.29 1.57-1.76 3.04-1.56 4.99 0.68 9.99 1.31 15 1.82 1.09 0.11 2.42-0.11 3.34-0.67 4.61-2.8 9.12-5.75 13.65-8.66 0.22-0.14 0.36-0.41 0.53-0.61q0.43 0 0.85 0zm-55.51 80.4c0.01 30.43 24.67 55.07 55.1 55.07 30.44 0 55.12-24.71 55.08-55.1-0.05-30.45-24.74-55.15-55.11-55.13-30.37 0.01-55.09 24.78-55.07 55.16z"/></clipPath><clipPath clipPathUnits="userSpaceOnUse" id="cp3"><path d="m5.79 203.13c5.84-18.24 11.57-36.15 17.31-54.09 2.5 0.44 4.3 1.29 5.58 3.55 2.97 5.24 6.29 10.27 9.4 15.43 0.67 1.12 1.33 1.49 2.7 1.3q9.37-1.29 18.79-2.25c1.15-0.11 2.54 0.23 3.54 0.83 3.89 2.32 7.66 4.84 11.5 7.26 0.84 0.53 1.34 0.95 0.94 2.17-4.63 14.28-9.18 28.58-13.76 42.88-0.06 0.18-0.17 0.35-0.37 0.74-4.15-3.31-8.24-6.57-12.33-9.83-3.38-2.7-6.82-5.33-10.11-8.14-1.42-1.22-2.84-1.5-4.64-1.38-8.71 0.57-17.42 1.04-26.13 1.53-0.7 0.04-1.4 0-2.42 0z"/></clipPath><clipPath clipPathUnits="userSpaceOnUse" id="cp4"><path d="m137.93 149.1c5.72 17.89 11.45 35.8 17.3 54.07-3.82-0.19-7.38-0.34-10.94-0.54-6.23-0.34-12.45-0.76-18.69-1.03-0.95-0.03-2.11 0.34-2.85 0.93-7.14 5.6-14.21 11.3-21.31 16.96-0.59 0.47-1.21 0.92-1.98 1.51-2.52-7.84-4.96-15.44-7.4-23.04-2.14-6.68-4.21-13.38-6.45-20.02-0.52-1.54-0.15-2.23 1.15-3.02q5.46-3.3 10.75-6.86c1.39-0.94 2.74-1.26 4.38-1.05 6.11 0.8 12.25 1.46 18.35 2.31 1.38 0.19 2.03-0.2 2.7-1.31 3.07-5.1 6.22-10.15 9.34-15.22q1.82-2.95 5.65-3.69z"/></clipPath></defs><style>.a{fill:#ffa133}</style><g clip-path="url(#cp1)"><path fill-rule="evenodd" class="a" d="m36.2 83.4c0-24.5 20-44.5 44.4-44.4 24.4 0.1 44.2 19.9 44.2 44.4 0 24.5-19.8 44.3-44.4 44.3-24.4 0-44.2-19.8-44.2-44.3zm44.4-40.4c-22.2-0.1-40.4 18.1-40.4 40.4 0 22.3 18 40.3 40.2 40.3 22.4 0 40.4-18 40.4-40.3 0-22.3-18-40.3-40.2-40.4zm-0.2 82.7v2zm42.4-42.3h2zm-84.6 0h-2z"/></g><path fill-rule="evenodd" class="a" d="m80.9 3c5.1 3.3 10.2 6.7 15.3 10 0.5 0.2 1.2 0.1 1.8 0.1 5.3-0.7 10.5-1.3 15.7-2 1.3-0.2 2 0.3 2.7 1.4q3.9 6.7 8.1 13.2c0.6 0.8 1.5 1.6 2.4 1.9q7.4 2.7 14.9 5.1c1.2 0.4 1.7 0.9 1.8 2.2q0.7 8.1 1.7 16.1c0.1 0.8 0.6 1.7 1.2 2.3q5.5 5.6 11.2 11c1 0.9 1.1 1.6 0.7 2.8-1.9 4.8-3.6 9.7-5.3 14.6-0.3 1-0.3 2.4 0 3.4 1.7 4.9 3.4 9.7 5.3 14.6 0.4 1.1 0.3 1.9-0.7 2.7q-5.6 5.5-11.2 11.1c-0.6 0.7-1.1 1.8-1.3 2.7-0.6 5.3-1.1 10.6-1.8 15.9 0 0.7-0.9 1.7-1.7 1.9-4.9 1.8-9.9 3.4-14.8 5.2-0.9 0.3-1.9 1.1-2.4 1.9q-4.1 6.4-8 13c-0.8 1.2-1.4 1.8-3 1.5-5.1-0.7-10.1-1.3-15.2-1.8-1.1-0.1-2.4 0.3-3.4 0.8-4.4 2.7-8.7 5.5-13.1 8.4-1 0.6-1.7 0.6-2.6 0-4.4-2.9-8.7-5.7-13.1-8.4-1-0.6-2.3-0.9-3.4-0.8q-7.7 0.7-15.4 1.8c-1.4 0.2-2-0.2-2.7-1.3-2.6-4.3-5.2-8.6-7.9-12.9-0.7-1-1.8-1.9-3-2.4-4.7-1.7-9.5-3.3-14.3-4.8-1.4-0.5-1.9-1.3-2-2.7-0.4-5.3-1-10.5-1.7-15.7-0.1-0.8-0.6-1.7-1.2-2.3q-5.6-5.6-11.2-11.1c-0.9-0.8-1.1-1.6-0.6-2.7q2.7-7.4 5.3-14.8c0.3-0.9 0.3-2.1 0-3q-2.6-7.5-5.4-14.8c-0.4-1.2-0.3-1.9 0.7-2.8 3.7-3.5 7.3-7.1 10.9-10.7 0.8-0.9 1.4-2.1 1.6-3.3 0.6-5.2 1.2-10.4 1.7-15.6 0.1-1.3 0.7-1.6 1.8-2 4.8-1.6 9.6-3.2 14.4-5 1.2-0.4 2.3-1.3 3-2.4 2.7-4.1 5.3-8.3 7.8-12.6 0.8-1.3 1.6-1.8 3.1-1.6 5 0.7 10 1.3 15 1.8 1.1 0.1 2.4-0.1 3.3-0.6 4.6-2.8 9.1-5.8 13.7-8.7 0.2-0.1 0.3-0.4 0.5-0.6q0.4 0 0.8 0zm-55.5 80.4c0 30.4 24.7 55.1 55.1 55.1 30.5 0 55.1-24.7 55.1-55.1-0.1-30.5-24.7-55.2-55.1-55.2-30.4 0.1-55.1 24.8-55.1 55.2z"/><g clip-path="url(#cp2)"><path fill-rule="evenodd" class="a" d="m79.2 1c0 0 0.9 0 0.9 0q0 0 0 0 0 0 0 0 0 0 0 0 0 0 0 0 0 0 0 0 0 0 0 0 0 0 0 0 0 0 0 0 0 0 0 0 0 0 0 0 0 0 0 0 0 0 0 0 0 0 0 0 0 0 0 0 0 0 0 0 0 0 0 0 0 0 0 0 0 0 0 0 0 0 0 0 0 0 0 0 0 0 0 0 0 0 0 0 0 0 0 0 0 0 0 0 0 0 0 0 0 0 0 0 0 0 0 0 0 0 0 0 0 0 0 0 0 0 0 0 0 0 0 0 0 0 0 0 0 0 0 0 0 0 0 0 0 0 0 0 0 0 0 0 0 0 0 0 0 0 0 0 0 0 0 0 0 0 0.1 0 0 0 0 0 0 0 0 0 0 0 0 0 0 0 0 0 0 0 0 0 0 0 0 0 0 0 0 0 0 0 0 0 0 0 0 0 0 0 0 0 0 0 0 0 0 0 0 0 0 0 0 0 0 0 0 0 0 0 0 0 0 0 0 0 0 0 0 0 0 0 0 0 0 0 0 0 0 0 0 0 0 0 0 0 0 0 0 0 0 0 0 0 0 0 0 0 0 0 0 0 0 0 0 0 0 0 0 0 0 0 0 0 0 0 0 0 0 0 0 0 0 0 0 0 0 0 0 0 0 0 0 0 0 0 0 0 0 0 0 0 0 0 0 0 0 0 0 0 0 0 0 0 0 0 0 0 0 0 0 0 0 0 0 0 0 0 0 0 0 0 0 0 0 0 0 0 0 0 0 0 0 0 0 0 0 0 0 0 0 0 0 0 0 0 0 0 0 0 0 0 0 0 0 0 0 0 0 0 0 0 0 0 0 0 0 0 0 0 0 0 0 0 0 0 0 0 0 0 0 0 0 0 0 0 0 0 0 0 0.1 0 0 0 0 0 0 0 0 0 0 0 0 0 0 0 0 0 0 0 0 0 0 0 0 0 0 0 0 0 0 0 0 0 0 0 0 0 0 0 0 0 0 0 0 0 0 0 0 0 0 0 0 0 0 0 0 0 0 0 0 0 0 0 0 0 0 0 0 0 0 0 0 0 0 0 0 0 0 0 0 0 0 0 0 0 0 0 0 0 0 0 0 0 0 0 0 0 0 0 0 0 0 0 0 0 0 0 0 0 0 0 0 0 0 0 0 0 0 0 0 0 0 0 0 0 0 0 0 0 0 0 0 0 0 0 0 0 0 0 0 0 0 0 0 0 0 0 0 0 0 0 0 0 0 0 0 0 0 0 0 0 0 0 0 0 0 0 0 0 0 0 0 0 0 0 0 0 0 0 0 0 0 0 0 0 0 0 0 0 0 0 0 0 0 0 0 0 0 0 0 0 0 0 0 0 0 0 0 0 0 0 0 0 0 0 0 0 0 0 0 0 0 0 0 0 0 0 0 0 0 0 0 0 0 0 0 0 0 0 0.1 0 0 0 0 0 0 0 0 0 0 0 0 0 0 0 0 0 0 0 0 0 0 0 0 0 0 0 0 0 0 0 0 0 0 0 0 0 0 0 0 0 0 0 0 0 0 0 0 0 0 0 0 0 0 0 0 0 0 0 0 0 0 0 0 0 0 0 0 0 0 0 0 0 0 0 0 0 0 0 0 0 0 0 0 0 0 0 0 0 0 0 0 0 0 0 0 0 0 0 0 0 0 0 0 0 0 0 0 0 0 0 0 0 0 0 0 0 0 0 0 0 0 0 0 0 0 0 0 0 0 0 0 0 0 0 0 0 0 0 0 0 0 0 0 0 0 0 0 0 0 0 0 0 0 0 0 0 0 0 0 0 0 0 0 0 0 0 0 0 0 0 0 0 0 0 0 0 0 0 0 0 0 0 0 0 0 0 0 0 0 0 0 0 0 0 0 0 0 0 0 0 0 0 0 0 0 0 0 0 0 0 0 0 0 0 0 0 0 0 0 0 0 0 0 0 0 0 0 0 0 0 0 0 0 0 0 0 0 0 0 0 0.1 0 0.1 0 0 0 0 0 0 0 0 0 0 0 0 0 0 0 0 0 0 0 0 0 0 0 0 0 0 0 0 0 0 0 0 0 0 0 0 0 0 0 0 0 0 0 0 0 0 0 0 0 0 0 0 0 0 0 0 0 0 0 0 0 0 0 0 0 0 0 0 0 0 0 0 0 0 0 0 0 0 0 0 0 0 0 0 0 0 0 0 0 0 0 0 0 0 0 0 0 0 0 0 0 0 0 0 0 0 0 0 0 0 0 0 0 0 0 0 0 0 0 0 0 0 0 0 0 0 0 0 0 0 0 0 0 0 0 0 0 0 0 0 0 0 0 0 0 0 0 0 0 0 0 0 0 0 0 0 0 0 0 0 0 0 0 0 0 0 0 0 0 0 0 0 0 0 0 0 0 0 0 0 0 0 0 0 0 0 0 0 0 0 0 0 0 0 0 0 0 0 0 0 0 0 0 0 0 0 0 0 0 0 0 0 0 0 0 0 0 0 0 0 0 0 0 0 0 0 0 0 0 0 0 0 0 0 0 0 0 0.1 0 0.1 0 0 0 0 0 0 0 0 0 0 0 0 0 0 0 0 0 0 0 0 0 0 0 0 0 0 0 0 0 0 0 0 0 0 0 0 0 0 0 0 0 0 0 0 0 0 0 0 0 0 0 0 0 0 0 0 0 0 0 0 0 0 0 0 0 0 0 0 0 0 0 0 0 0 0 0 0 0 0 0 0 0 0 0 0 0 0 0 0 0 0 0 0 0 0 0 0 0 0 0 0 0 0 0 0 0 0 0 0 0 0 0 0 0 0 0 0 0 0 0 0 0 0 0 0 0 0 0 0 0 0 0 0 0 0 0 0 0 0 0 0 0 0 0 0 0 0 0 0 0 0 0 0 0 0 0 0 0 0 0 0 0 0 0 0 0 0 0 0 0 0 0 0 0 0 0 0 0 0 0 0 0 0 0 0 0 0 0 0 0 0 0 0 0 0 0 0 0 0 0 0 0 0 0 0 0 0 0 0 0 0 0 0 0 0 0 0 0 0 0 0 0 0 0 0 0 0 0 0 0 0 0 0 0 0 0 0 0.1 0 0.1 0 0 0 0 0 0 0 0 0 0 0 0 0 0 0 0 0 0 0 0 0 0 0 0 0 0 0 0 0 0 0 0 0 0 0 0 0 0 0 0 0 0 0 0 0 0 0 0 0 0 0 0 0 0 0 0 0 0 0 0 0 0 0 0 0 0 0 0 0 0 0 0 0 0 0 0 0 0 0 0 0 0 0 0 0 0 0 0 0 0 0 0 0 0 0 0 0 0 0 0 0 0 0 0 0 0 0 0 0 0 0 0 0 0 0 0 0 0 0 0 0 0 0 0 0 0 0 0 0 0 0 0 0 0 0 0 0 0 0 0 0 0 0 0 0 0 0 0 0 0 0 0 0 0 0 0 0 0 0 0 0 0 0 0 0 0 0 0 0 0 0 0 0 0 0 0 0 0 0 0 0 0 0 0 0 0 0 0 0 0 0 0 0 0 0 0 0 0 0 0 0 0 0 0 0 0 0 0 0 0 0 0 0 0 0 0 0 0 0 0 0 0 0 0 0 0 0 0 0 0 0 0 0 0 0 0 0 0.1 0 0.1 0 0 0 0 0 0 0 0 0 0 0 0 0 0 0 0 0 0 0 0 0 0 0 0 0 0 0 0 0 0 0 0 0 0 0 0 0 0 0 0 0 0 0 0 0 0 0 0 0 0 0 0 0 0 0 0 0 0 0 0 0 0 0 0 0 0 0 0 0 0 0 0 0 0 0 0 0 0 0 0 0 0 0 0 0 0 0 0 0 0 0 0 0 0 0 0 0 0 0 0 0 0 0 0 0 0 0 0 0 0 0 0 0 0 0 0 0 0 0 0 0 0 0 0 0 0 0 0 0 0 0 0 0 0 0 0 0 0 0 0 0 0 0 0 0 0 0 0 0 0 0 0 0 0 0 0 0 0 0 0 0 0 0 0 0 0 0 0 0 0 0 0 0 0 0 0 0 0 0 0 0 0 0 0 0 0 0 0 0 0 0 0 0 0 0 0 0 0 0 0 0 0 0 0 0 0 0 0 0 0 0 0 0 0 0 0 0 0 0 0 0 0 0 0 0 0 0 0 0 0 0 0 0 0 0 0 0 0.1 0 0.1 0 0 0 0 0 0 0 0 0 0 0 0 0 0 0 0 0 0 0 0 0 0 0 0 0 0 0 0 0 0 0 0 0 0 0 0 0 0 0 0 0 0 0 0 0 0 0 0 0 0 0 0 0 0 0 0 0 0 0 0 0 0 0 0 0 0 0 0 0 0 0 0 0 0 0 0 0 0 0 0 0 0 0 0 0 0 0 0 0 0 0 0 0 0 0 0 0 0 0 0 0 0 0 0 0 0 0 0 0 0 0 0 0 0 0 0 0 0 0 0 0 0 0 0 0 0 0 0 0 0 0 0 0 0 0 0 0 0 0 0 0 0 0 0 0 0 0 0 0 0 0 0 0 0 0 0 0 0 0 0 0 0 0 0 0 0 0 0 0 0 0 0 0 0 0 0 0 0 0 0 0 0 0 0 0 0 0 0 0 0 0 0 0 0 0 0 0 0 0 0 0h4.9l-1.7 1.7c4.3 2.8 8.6 5.7 13 8.4q0.1 0 0.3 0 0.2 0 0.4 0l0.3 2.6-0.1-0.7-0.2-1.9c5.2-0.7 10.4-1.3 15.6-2 0.9-0.1 1.9 0 2.8 0.5 0.9 0.4 1.5 1.2 1.9 1.9l-1.7 1 1.4-0.8 0.3-0.2q4 6.6 8.1 13.1c0.3 0.5 0.9 1 1.4 1.1q7.3 2.7 14.8 5.1c0.7 0.2 1.5 0.6 2.2 1.4 0.7 0.7 0.9 1.7 1 2.5l-1.4 0.1-0.6 0.1 2-0.2q0.7 8 1.7 16l-2 0.3 2-0.3c0 0.3 0.2 0.8 0.6 1.2l-1.4 1.3-0.2 0.3 1.6-1.6q5.6 5.6 11.2 11l-1 1.1-0.4 0.3 1.4-1.4c0.6 0.6 1.2 1.3 1.4 2.3 0.2 0.9 0 1.8-0.3 2.6-1.8 4.8-3.6 9.6-5.2 14.5-0.2 0.6-0.2 1.5 0 2.1l-3.6 1.3 1.8-0.6 1.8-0.7c1.6 4.9 3.4 9.7 5.2 14.6l-3.7 1.4c-1.8-4.9-3.6-9.7-5.3-14.7-0.5-1.4-0.5-3.2 0-4.7l1.9 0.7-1.9-0.7c1.7-4.9 3.5-9.8 5.3-14.6l1.5 0.6 0.3 0.1-1.8-0.7q0.1-0.3 0.1-0.4 0 0-0.2-0.2-5.8-5.5-11.3-11.1c-0.8-0.8-1.6-2.1-1.8-3.5q-1-8-1.7-16.1 0-0.3-0.1-0.3-0.1-0.1-0.4-0.2l0.7-2-0.7 2q-7.5-2.4-14.9-5.1l0.7-1.9-0.1 0.3v-0.1l-0.6 1.7c-1.3-0.5-2.6-1.5-3.3-2.7q-4.3-6.6-8.2-13.3c-0.2-0.3-0.3-0.4-0.4-0.4 0 0-0.1 0-0.4 0l-0.2-2v0.3-0.3l0.2 2c-5.2 0.7-10.4 1.3-15.6 1.9-0.3 0.1-0.8 0.1-1.2 0.1-0.5 0-1.2 0-2-0.5-4.8-3.1-9.6-6.2-14.4-9.4q0 0.1-0.1 0.1l-0.1-0.2q0 0 0 0l0.1 0.2c-4.5 2.9-9 5.9-13.7 8.7-1.3 0.8-3.1 1.1-4.5 0.9-5.1-0.5-10.1-1.1-15.1-1.8q-0.4 0-0.5 0-0.1 0-0.1 0c0 0-0.2 0.1-0.5 0.6-2.5 4.3-5.1 8.6-7.8 12.7-0.9 1.4-2.4 2.6-4 3.2l-0.7-1.9 0.4 1.2-0.4-1.2 0.7 1.9c-4.8 1.8-9.7 3.4-14.5 5l-0.6-1.8 0.6 1.8q-0.3 0.1-0.4 0.2 0 0-0.1 0.1c-0.4 5.2-1 10.5-1.7 15.7-0.2 1.6-1 3.2-2.1 4.4-3.6 3.7-7.3 7.2-11 10.8q-0.2 0.2-0.2 0.2 0 0.1 0.1 0.4 2.8 7.4 5.4 14.8c0.4 1.4 0.4 3 0 4.3l-1.9-0.6-0.2-0.1 2.1 0.7q-2.6 7.5-5.4 14.9-0.1 0.3-0.1 0.3 0.1 0.1 0.3 0.3 5.7 5.5 11.2 11.1c0.8 0.8 1.6 2 1.8 3.5l-2 0.2 2-0.2c0.7 5.2 1.2 10.4 1.7 15.7l-2 0.2 2-0.2q0 0.4 0.1 0.6 0 0.1 0 0.1 0 0 0 0 0 0 0 0 0 0 0 0 0 0 0 0 0.1 0 0.1 0.1 0.1 0 0.4 0.2l-0.6 1.9 0.6-1.9c4.9 1.5 9.7 3.1 14.4 4.9 1.6 0.5 3.1 1.8 4 3.2l-1.4 0.8-0.3 0.2 1.7-1c2.7 4.2 5.4 8.5 8 12.9 0.1 0.2 0.2 0.3 0.3 0.4q0 0 0.3 0 7.8-1.1 15.5-1.9c1.6-0.1 3.3 0.3 4.6 1.1 4.5 2.7 8.8 5.5 13.2 8.4l-1 1.5-0.1 0.2 1.1-1.7q0.1 0.1 0.2 0.1 0.1 0 0.2-0.1c4.4-2.8 8.8-5.7 13.2-8.4 1.3-0.7 3-1.2 4.6-1.1 5.1 0.5 10.2 1.1 15.3 1.9l-0.3 1.8v0.1l0.3-1.9c0.3 0 0.5 0 0.5 0 0.1 0 0.2-0.2 0.5-0.6q3.9-6.6 8-13.1c0.8-1.2 2.1-2.2 3.4-2.7l0.7 1.9v-0.1 0.2l-0.7-2q3.7-1.3 7.5-2.6 3.7-1.2 7.3-2.5 0 0 0.1-0.1 0.1-0.1 0.2-0.2 0.1-0.1 0.2-0.2 0.5-3.8 0.9-7.8 0.4-3.9 0.9-7.9l1.5 0.2h0.4l-1.9-0.2c0.1-1.4 0.8-2.9 1.8-3.9l2 2-2-2q5.5-5.6 11.3-11.1 0.1-0.2 0.2-0.3 0 0-0.1-0.3l3.7-1.4c0.3 0.7 0.5 1.6 0.3 2.6-0.2 1-0.8 1.7-1.4 2.3l-1.4-1.5 1.4 1.5q-5.6 5.4-11.1 11c-0.4 0.4-0.7 1.1-0.8 1.6q-0.4 3.9-0.9 7.9-0.4 3.9-0.9 7.9c-0.1 1-0.6 1.8-1.1 2.3-0.4 0.5-1.1 1-1.9 1.3l-0.7-1.9 0.1 0.1 0.6 1.8q-3.7 1.4-7.4 2.6-3.8 1.3-7.4 2.6c-0.5 0.2-1.1 0.6-1.4 1.1l-1.5-1 1.5 1q-4.1 6.4-8 12.9l-1.7-1 1.7 1c-0.4 0.7-1 1.5-1.9 2.1-1 0.5-2.1 0.6-3.1 0.4-5-0.7-10.1-1.3-15.1-1.8l0.2-2-0.2 2 0.2-2-0.2 2c-0.6 0-1.5 0.2-2.1 0.5l-1.1-1.7 0.1 0.2 1 1.5c-4.4 2.7-8.7 5.5-13.1 8.3-0.6 0.5-1.5 0.9-2.4 0.8-1 0-1.8-0.4-2.4-0.8-4.3-2.8-8.7-5.6-13.1-8.3-0.6-0.3-1.5-0.5-2.1-0.5q-7.7 0.7-15.3 1.8l-0.3-2 0.3 2c-1 0.2-2 0.1-2.9-0.4-0.9-0.5-1.4-1.3-1.8-1.9l2-1.2-0.3 0.2-1.7 1c-2.6-4.3-5.2-8.6-7.9-12.8-0.5-0.7-1.3-1.3-2-1.6l0.7-1.8-0.7 1.8c-4.6-1.7-9.4-3.3-14.2-4.8-0.9-0.3-1.9-0.8-2.5-1.7-0.6-0.9-0.8-1.9-0.9-2.8q-0.7-7.8-1.7-15.5c0-0.3-0.2-0.8-0.6-1.2q-5.6-5.6-11.2-11c-0.6-0.6-1.2-1.3-1.4-2.3-0.2-1 0-1.9 0.3-2.6l2.2 0.8-2.2-0.8q2.8-7.4 5.3-14.8c0.2-0.4 0.2-1.2 0-1.7q-2.6-7.4-5.3-14.7l3.5-1.3-3.5 1.3c-0.3-0.8-0.5-1.7-0.3-2.6 0.2-1 0.8-1.7 1.4-2.3l1.4 1.4h-0.1l-1.3-1.4c3.7-3.5 7.3-7.1 10.8-10.7l2.3 2.2-2.3-2.2c0.6-0.6 1-1.4 1.1-2.1 0.7-5.2 1.2-10.4 1.7-15.6 0.1-1 0.4-1.9 1.2-2.6 0.6-0.6 1.4-0.9 1.9-1.1 4.9-1.6 9.7-3.2 14.4-5 0.7-0.2 1.6-0.9 2-1.6l2.9 1.9-2.9-1.9q4.1-6.1 7.8-12.5c0.5-0.8 1.1-1.6 2-2.1 1-0.5 2-0.6 3-0.5l-0.2 1.9v0.1l0.2-2c5 0.7 10 1.3 15 1.8l-0.2 2v-0.1 0.1l0.2-2c0.7 0.1 1.6-0.1 2.1-0.3l1 1.7v-0.1l-1-1.6c4.5-2.8 8.9-5.7 13.4-8.6q0 0 0 0 0 0 0 0 0.1-0.1 0.3-0.3zm0.8 3.4zm16.2 8.5l1.1-1.6-1.1 1.7v-0.1 0.1l1.1-1.7q0 0 0 0 0 0 0 0zm18.1 0.1q0 0 0 0 0 0 0 0.1 0 0 0 0 0 0 0-0.1zm23.2 70.3c0.1 31.5-25.5 57.1-57 57.1-31.6 0-57.1-25.5-57.1-57-0.1-31.5 25.6-57.2 57-57.2 31.5 0 57.1 25.6 57.1 57.1zm-4 0c0-29.3-23.8-53.1-53.1-53.1-29.2 0-53.1 23.9-53 53.2 0 29.3 23.7 53 53.1 53 29.3 0 53.1-23.8 53-53.1zm7.6-48.7l0.6-1.9zm15.5 31.4q0-0.1 0-0.1 0 0 0 0.1 0 0 0 0 0 0 0 0zm3.6 32.9l-1.9 0.7zm-19.2 33.2q0 0 0 0 0 0 0 0zm4.1-20l1.4 1.4zm-1.6 19.9l-2-0.2q0 0 0 0 0 0 0 0l2 0.2h-0.4zm-29.1 21.6q0 0 0 0 0 0 0 0zm0 0q0 0 0 0 0 0 0 0 0 0 0 0zm-113.6-54.7l1.9 0.7zm0-31.2l1.9-0.7zm11.9-15.6l1.5 1.4zm22.2-28l1.7 1.1zm78.9-11.1l-0.2-1.7 0.2 1.7zm27.6 21.7q0-0.1 0-0.1 0 0 0 0.1c0.1 0 0.1 0 0 0zm15.1 65.9q0 0 0 0 0 0 0 0 0 0.1 0 0.1 0 0 0-0.1zm-13.5 31.3l-1.6-0.2zm-62.6 29.4q0.1 0 0.1 0 0 0-0.1 0 0 0 0 0 0 0 0 0zm-33.9-7.7q0 0 0.1 0 0 0 0 0-0.1 0-0.1 0zm-27.1-21.7q0 0 0 0 0 0 0 0zm0 0q0 0 0 0 0 0 0 0zm-15.1-31.3q0 0.1 0 0.1 0 0 0-0.1 0 0 0 0 0 0 0 0zm0-34.7q0 0 0 0 0 0 0 0 0 0 0 0 0 0 0 0zm15.1-31.3q-0.1 0-0.1 0.1-0.1 0 0 0 0 0 0.1 0 0-0.1 0-0.1 0 0 0 0zm43.3-23.8l-0.2 1.9 0.2-1.9zm64.1 128.2l-0.7-1.8zm-0.1-111.3l-0.6 1.7zm-92.3 1.7l-0.3-0.8 0.3 0.8zm-18.7 20.7l-2-0.3zm1.7-15.6l2 0.2zm27.1-22l-1.7-1zm-19.2 70.7h2zm110.2 0h-2zm-53.7 79.6l1.1 1.6zm-1.4-24.5v-2z"/></g><path class="a" d="m5.8 203.1c5.8-18.2 11.6-36.1 17.3-54.1 2.5 0.5 4.3 1.3 5.6 3.6 3 5.2 6.3 10.3 9.4 15.4 0.7 1.1 1.3 1.5 2.7 1.3q9.4-1.3 18.8-2.2c1.1-0.1 2.5 0.2 3.5 0.8 3.9 2.3 7.7 4.8 11.5 7.3 0.9 0.5 1.4 0.9 1 2.1-4.7 14.3-9.2 28.6-13.8 42.9-0.1 0.2-0.2 0.4-0.4 0.8-4.1-3.4-8.2-6.6-12.3-9.9-3.4-2.7-6.8-5.3-10.1-8.1-1.4-1.2-2.9-1.5-4.7-1.4-8.7 0.6-17.4 1-26.1 1.5-0.7 0.1-1.4 0-2.4 0z"/><g clip-path="url(#cp3)"><path fill-rule="evenodd" class="a" d="m3.8 202.8l0.1-0.3c5.8-18.2 11.6-36.1 17.3-54.1l1.9 0.6 0.4-1.9c1.3 0.2 2.7 0.6 3.9 1.3 1.2 0.8 2.2 1.8 3 3.2 3 5.2 6.2 10.1 9.4 15.4 0.1 0.2 0.2 0.3 0.3 0.4q0 0 0.4-0.1 9.4-1.3 18.9-2.2l0.2 1.9v0.1l-0.2-2c1.6-0.2 3.4 0.3 4.7 1.1 4 2.3 7.8 4.9 11.6 7.3 0.4 0.2 1.1 0.7 1.6 1.5 0.5 1 0.5 2 0.2 3-4.7 14.2-9.2 28.5-13.8 42.8l-1.7-0.5 1.7 0.5c-0.1 0.3-0.2 0.5-0.3 0.6 0 0.2-0.1 0.3-0.2 0.4l-1.8-0.8 1.8 0.8-1.1 2.3-1.9-1.6c-4.2-3.3-8.3-6.6-12.4-9.8-3.3-2.7-6.8-5.4-10.1-8.2l1.3-1.5-1.3 1.5c-0.9-0.8-1.8-1-3.2-0.9l-0.2-2 0.1 0.3-0.1-0.3 0.2 2c-8.7 0.6-17.5 1-26.2 1.5l-0.1-2v0.1l0.1 1.9c-0.7 0.1-1.6 0-2.5 0h-2zm30.4-3.2c2.2-0.1 4.2 0.2 6.1 1.9 3.2 2.8 6.6 5.3 10 8.1l-1.2 1.5 0.6-0.8 0.6-0.7q5.1 4 10.2 8.1c4.4-13.6 8.7-27.2 13.1-40.8q0 0-0.1 0l0.2-0.2q0 0 0 0l-0.2 0.2c-3.9-2.5-7.5-5-11.4-7.3l1-1.7v0.1l-1 1.6c-0.7-0.4-1.6-0.6-2.3-0.5q-9.4 0.9-18.7 2.2l-0.2-1.4-0.1-0.3 0.3 1.7c-0.9 0.1-1.9 0.1-2.8-0.3-0.9-0.5-1.5-1.2-1.9-1.9l1.7-1.1-0.5 0.3-1.2 0.8c-3.1-5.1-6.5-10.3-9.5-15.5l1.8-1-0.4 0.2-1.4 0.8c-0.4-0.9-1-1.4-1.6-1.7q-0.4-0.3-0.9-0.5c-5.2 16.5-10.5 33-15.9 49.7 8.6-0.5 17.2-0.9 25.7-1.5zm39.5-22.9q0 0 0-0.1v0.1q0 0 0 0v0.1q0 0 0-0.1l1.3 0.5 0.5 0.1zm-52.5-28.3l0.6-1.6 1.7 0.3-0.4 1.9zm52.5 28.2q0 0 0 0l1-1.5-0.1 0.1zm0 0.1h0.1q0 0 0 0zm-36 27.8l1.3-1.5zm2.4-37.2q0 0 0 0 0 0 0 0 0 0-0.1 0 0.1 0 0.1 0zm-5.7 34.5l0.1 1.8z"/></g><path class="a" d="m137.9 149.1c5.8 17.9 11.5 35.8 17.3 54.1-3.8-0.2-7.3-0.4-10.9-0.6-6.2-0.3-12.5-0.7-18.7-1-0.9 0-2.1 0.3-2.9 0.9-7.1 5.6-14.2 11.3-21.3 17-0.5 0.5-1.2 0.9-1.9 1.5-2.6-7.8-5-15.4-7.4-23-2.2-6.7-4.3-13.4-6.5-20.1-0.5-1.5-0.1-2.2 1.2-3q5.4-3.3 10.7-6.8c1.4-1 2.7-1.3 4.4-1.1 6.1 0.8 12.2 1.5 18.3 2.3 1.4 0.2 2.1-0.2 2.7-1.3 3.1-5.1 6.3-10.1 9.4-15.2q1.8-3 5.6-3.7z"/><g clip-path="url(#cp4)"><path fill-rule="evenodd" class="a" d="m135.2 147.1h2.7l0.2 1.9 1.7-0.5c5.8 17.9 11.5 35.8 17.3 54.1l-1.9 0.6 1.9-0.6 0.9 2.7-2.9-0.1c-3.8-0.2-7.3-0.4-10.9-0.6l0.1-2v0.3l-0.1 1.7c-6.3-0.3-12.5-0.7-18.7-1-0.5 0-1.1 0.2-1.5 0.5-7.1 5.6-14.2 11.3-21.3 17q-0.9 0.7-2 1.5l-2.3 1.7-0.8-2.7c-2.6-7.8-5-15.4-7.4-23-2.2-6.7-4.3-13.4-6.5-20l3.8-1.3c2.3 6.7 4.3 13.4 6.5 20 2.1 6.8 4.3 13.5 6.5 20.4 7-5.6 14-11.2 21-16.7l1.4 1.7-1.4-1.7c1.1-0.9 2.8-1.5 4.2-1.4l-0.1 2 0.1-2c6.2 0.3 12.5 0.7 18.7 1 2.6 0.2 5.3 0.3 8 0.4-5.3-16.6-10.5-33.1-15.8-49.4-1.1 0.5-2 1.2-2.6 2.2l-2.1-1.3 2.1 1.3c-3.1 5.1-6.3 10.2-9.3 15.2-0.5 0.7-1 1.5-1.9 1.9-1 0.5-1.9 0.5-2.8 0.4-6.2-0.8-12.2-1.5-18.4-2.3-1.1-0.2-2 0-3 0.7q-5.3 3.6-10.8 6.9l-0.9-1.5-0.1-0.2 1 1.7q-0.3 0.2-0.4 0.3 0 0.1 0.1 0.4l-1.9 0.6h0.2l-2.1 0.7c-0.3-1-0.5-2.1 0-3.2 0.4-1.1 1.3-1.7 2-2.2q5.4-3.3 10.7-6.8l1.5 2.3-1.5-2.3c1.8-1.2 3.6-1.6 5.7-1.4l-0.2 2.1 0.2-2.1c6.1 0.8 12.3 1.5 18.4 2.3l-0.3 2 0.1-0.3-0.1 0.3 0.3-2q0.4 0.1 0.4 0.1c0.1-0.1 0.2-0.2 0.3-0.4 3.1-5.1 6.3-10.2 9.4-15.3 1.1-1.8 2.8-3.2 4.8-4zm-13.7 53.9l1.3 1.6zm-34.2-24.2c0 0 0 0 0 0.1 0 0.1-0.1 0.1 0 0.1q0 0 0-0.1 0 0 0-0.1zm9-10.4l1.2 1.7zm5.7-1.4l-0.2 2zm18.8 2.3q0 0 0 0 0 0 0 0-0.1 0.1-0.1 0.1 0 0 0.1-0.1zm13-13.5l-1.7-1zm-48.2 24l1.7-0.6zm34.5-8.8l0.2-1.7zm-18.8 50.5l-1.3-1.6zm-9.4-21.5l-1.9 0.6zm30.9-30l-1.7-1z"/></g><path class="a" d="m38.2 83.4c0-23.4 19.1-42.5 42.4-42.4 23.3 0.1 42.2 19 42.2 42.4 0 23.4-18.9 42.3-42.4 42.3-23.3 0-42.2-18.9-42.2-42.3z"/></svg>