<svg version="1.2" xmlns="http://www.w3.org/2000/svg" viewBox="0 0 161 162" width="161" height="162"><style>.a{fill:#ffa133}</style><path fill-rule="evenodd" class="a" d="m77.7 0q2.8 0 5.7 0 0.6 0.1 1.3 0.3c3.6 0.8 7.3 1.3 10.8 2.5 6.9 2.3 12.6 6.3 17.4 11.7 0.7 0.6 1.3 0.9 2.2 0.7 3.9-0.7 7.7-0.7 11.6-0.1 15.1 2.7 25.7 11.1 31.5 25.3 1.5 3.6 1.9 7.6 2.8 11.5v6.3c-0.1 0.4-0.2 0.8-0.2 1.2-1.8 13.5-8.6 23.6-20.3 30.5-1 0.6-1.5 1.2-1.5 2.5q0.1 26.5 0.1 53c-0.1 9.2-6.4 15.6-15.5 15.6-28.7 0-57.5 0.1-86.2 0-2.3 0-4.7-0.6-6.8-1.5-5.9-2.8-8.6-7.7-8.6-14.2 0-17.6 0-35.2 0.1-52.8 0-1.3-0.5-2-1.6-2.6-15.1-8.4-23.2-26-19.7-42.9 4.3-20.9 24.1-34.9 44.6-31.9 1.4 0.2 2.2-0.1 3.1-1.1 5.7-6.1 12.6-10.4 20.7-12.4 2.8-0.7 5.7-1.1 8.5-1.6zm54.1 124.4v-1.9c0-10.9 0-21.8-0.1-32.7 0-2.7 1-4.2 3.4-5.3 12.3-5.9 19.4-18.3 18.5-31.9-1-15.1-12.4-27.7-27.4-30.1-2.4-0.4-4.9-0.4-7.1-0.6 1.5 4.5 3.2 8.6 4.3 12.9 0.7 3.2 0.8 6.5 0.8 9.8 0 1.6-1.4 2.7-3 2.9-1.6 0.2-3.2-0.7-3.7-2.1-0.3-0.9-0.4-1.8-0.4-2.6-0.3-8.2-3.1-15.4-8-21.8-9.1-11.6-25.8-16.6-39.8-11.9-14.6 4.8-24.9 18.2-25.3 33.7 0 0.9-0.2 1.9-0.6 2.7-0.6 1.6-2.4 2.3-4 1.9-1.8-0.4-2.8-2-2.8-4.2 0.2-7 1.8-13.6 5.1-19.8 0.3-0.4 0.4-0.8 0.7-1.5-2.5 0.1-4.8 0.2-7 0.5-16.1 2-28.9 17.2-28 33.4 0.7 13.3 7.1 23 19 28.9 2.1 1 3 2.4 3 4.8-0.1 11-0.1 22-0.1 33 0 0.6 0 1.2 0 1.9zm-102.3 7.4c-0.1 0.3-0.2 0.4-0.2 0.5 0 4.4 0 8.8 0 13.2 0 5 3.2 8.2 8.3 8.2q43 0.1 86 0c5 0 8.2-3.2 8.2-8.3q0-6.1 0-12.2c0-0.5-0.1-0.9-0.1-1.4zm7.1-54c-0.1-2.5 1.2-4.3 3.3-4.5 2-0.3 3.7 1 4 3.4 0.7 6.3 4.2 11.2 7.5 16.2 0.9 1.3 1.9 2.5 2.8 3.8 1.1 1.8 0.8 3.9-0.8 5-1.6 1.2-3.7 1-5-0.7-4.7-5.9-8.9-12.1-11-19.4-0.3-1.3-0.5-2.6-0.8-3.8zm87.8 0.5c-0.3 3.4-1.7 7.2-3.8 10.7-2.3 3.9-4.8 7.7-7.4 11.4-1.6 2.3-3.7 2.7-5.6 1.3-1.7-1.3-1.7-3.5-0.2-5.7 2.8-4.4 5.6-8.8 8.1-13.4 0.9-1.6 1-3.6 1.6-5.3 0.3-1.1 0.6-2.2 1.2-3 1-1.2 2.5-1.3 3.9-0.8 1.5 0.7 2.3 2.1 2.2 4.8zm-47.5 9.5c0-3.3-0.1-6.7 0-9.9 0-1.1 0.3-2.2 0.8-3.2 0.8-1.3 2.1-1.7 3.6-1.4 1.4 0.3 2.4 1.2 2.7 2.7q0.2 0.9 0.2 1.9 0 10 0 19.9c0 2.6-0.9 4-2.7 4.5-2.1 0.5-4.2-0.6-4.4-2.8-0.3-2.5-0.2-5-0.2-7.5 0-1.4 0-2.8 0-4.2zm1532.8-1154.7c-0.2-0.1-0.3-0.2-0.5-0.3-5.4-1.4-8.4-5.4-8.3-10.9q0.9-28.2 1.9-56.4c0-1.8 1-2.8 2.5-2.8 1.6-0.1 2.6 1.1 2.5 3.1q-0.5 16.4-1.1 32.8c-0.2 7.9-0.5 15.8-0.7 23.7-0.1 3.9 3.4 6.7 6.8 5.4 2.1-0.7 3.3-2.5 3.2-5q-0.3-11.6-0.7-23.3-0.8-22.3-1.5-44.6-0.1-4.6-0.3-9.3c0-1.3 0.4-2.4 1.7-2.8 5.9-2 10-6 12.8-11.3 7.4-13.9 7.7-28 0.5-42.1-1.3-2.5-3.1-4.9-5.2-6.8-7.3-7.3-17.2-7.2-24.7-0.1-5.3 5.2-8.1 11.6-9.5 18.8-2 10.9-0.4 21.3 5.5 30.8 2.9 4.8 6.7 8.6 12 10.6 1.4 0.5 1.9 1.5 1.9 2.9-0.2 3.9-0.3 7.8-0.4 11.7-0.1 1.8-1.1 2.9-2.6 2.9-1.5 0-2.5-1.2-2.4-3 0-3.1 0.2-6.1 0.2-9.1 0-0.6-0.2-1.4-0.6-1.6-7.8-4-12.7-10.5-15.8-18.5-5.8-14.8-5-29.3 3.4-43 1.8-2.9 4.3-5.6 6.9-7.7 8.9-7.3 20.1-6.8 28.7 0.8 6.4 5.7 10 13.1 11.7 21.4 2.3 11.3 1.1 22.2-4.1 32.6-3.1 6.3-7.6 11.4-14.1 14.5-0.4 0.2-0.8 1-0.8 1.6 0.3 10 0.7 20 1 30 0.5 14.7 1 29.3 1.4 44 0.2 5.7-2.5 9.2-8 10.8-0.2 0-0.3 0.1-0.4 0.2h-2.9zm52.6 0c-1.4-0.6-2.8-1-4-1.7-3.2-2.1-4.7-5.1-4.5-8.9 0.4-8.8 0.9-17.6 1.4-26.4 0.3-6 0.6-12.1 0.9-18.4-3 0-5.9 0-8.8 0-2.9 0-3.6-0.7-3.6-3.6 0-10.7-0.1-21.4 0-32.1 0.3-15.5 2.6-30.7 8.8-45q0.7-1.6 1.4-3c0.8-1.6 2.1-2.2 3.4-1.6 1.5 0.6 1.9 2 1.1 3.7-3.5 7.4-5.9 15.2-7.4 23.3-1.5 8-2.2 16.1-2.3 24.2 0 9.2 0 18.4 0 27.5 0 0.5 0 1 0 1.6 3.2 0 6.2 0 9.2 0 2.7 0 3.5 0.9 3.4 3.5q-1.2 22.3-2.4 44.6c0 0.8-0.1 1.6-0.1 2.4 0.1 2.6 2.2 4.8 4.8 4.9 2.7 0.1 5-1.9 5.2-4.6 0.1-0.5 0.1-1 0.1-1.5q0-69.8 0-139.6v-1.6q-0.2-0.1-0.4-0.2c-1.8 2.2-3.5 4.5-5.1 6.8-1.6 2.2-2.8 2.8-4.2 1.8-1.4-0.9-1.5-2.3-0.1-4.5 2.7-4.4 6.1-8.3 10.2-11.7 0.9-0.7 1.9-1.3 3.1-0.7 1.2 0.6 1.5 1.6 1.5 2.8q0 5.7 0 11.4 0 67.2 0 134.5c0 7.1-1.8 9.7-8.5 12.1zm-105.7 0c-1-0.4-2.1-0.7-3.1-1.2-3.6-1.9-5.5-5-5.4-9.2q0.5-17.9 1.1-35.8 0.7-22 1.4-44c0-0.8-0.2-1.3-1-1.7-8.1-4.5-11.9-11.4-11.5-20.6 0.8-15.2 1.6-30.4 2.4-45.6 0.1-1.9 1.1-3 2.6-3 1.6 0.1 2.6 1.3 2.5 3.2q-0.7 13.2-1.4 26.4c-0.4 6.8-0.8 13.6-1.1 20.4-0.3 6.7 3.7 12.7 9.9 15.2 2.5 1.1 2.7 1.4 2.6 4.1q-1.2 38.9-2.4 77.8c0 1.4-0.1 2.8-0.1 4.1 0.1 2.8 2.4 4.9 5.2 4.8 2.9-0.1 4.8-2 4.7-4.9 0-1.6-0.1-3.3-0.1-4.9 0-1.7 1.1-2.7 2.6-2.7 1.4 0 2.4 1 2.4 2.7 0.1 1.6 0.1 3.1 0.2 4.7 0.1 4.8-2.5 8.5-7.2 9.8q-0.6 0.2-1.2 0.4zm20.5-133.8c0.4 6.9 0.7 13.7 1.2 20.6 0.5 9.5-3.3 16.6-11.6 21.3-0.4 0.3-0.9 1.1-0.8 1.6 0.4 15.7 0.8 31.5 1.3 47.3q0.3 9.9 0.5 19.8c0.1 1.9-0.9 3-2.4 3.1-1.5 0-2.6-1.1-2.6-3.1q-0.3-10.6-0.6-21.2-0.7-23.7-1.3-47.5c-0.1-2.6 0.1-2.9 2.5-4 6.3-2.6 10.3-8.9 10-15.7-0.8-14.9-1.6-29.7-2.4-44.6q-0.1-1-0.1-2c0-1.7 1-2.8 2.5-2.9 1.4 0 2.4 1 2.5 2.7q0.5 8.7 1 17.4 0.2 3.6 0.3 7.2 0 0 0 0zm-21.4-0.7q0 11.3 0 22.7c0 0.4 0 0.9 0 1.4-0.3 1.3-1.1 2.2-2.5 2.2-1.4 0-2.3-0.9-2.5-2.2-0.1-0.5 0-1 0-1.4q0-22.8 0-45.6c0-0.5-0.1-1 0-1.5 0.3-1.3 1.1-2.1 2.5-2.1 1.4 0 2.2 0.8 2.5 2.1 0 0.5 0 1 0 1.5q0 11.4 0 22.9zm10.1-0.1q0 11.4 0 22.8c0 0.4 0 0.9-0.1 1.4-0.2 1.3-1.1 2.2-2.5 2.2-1.3 0-2.2-0.9-2.4-2.2-0.1-0.5-0.1-1-0.1-1.4q0-22.8 0-45.6c0-0.5 0-1 0.1-1.5 0.2-1.3 1.1-2.1 2.4-2.1 1.4 0 2.3 0.8 2.5 2.1 0.1 0.5 0.1 1 0.1 1.5q0 11.4 0 22.8zm62.9 9.8q0 0.6 0 1.2c-0.1 1.7-1.1 2.8-2.6 2.8-1.4 0-2.2-1.1-2.5-2.7-0.4-3.5-0.8-7.1-1.6-10.5-0.9-3.5-2.7-6.6-5.3-9.1-1.6-1.6-3.4-2.7-5.8-2.9-1.5-0.1-2.4-1.3-2.3-2.6 0.1-1.4 1.1-2.4 2.6-2.4 2.7 0.1 5.1 1.1 7.2 2.7 4.6 3.6 7.3 8.4 8.7 13.9 0.9 3.1 1.3 6.3 1.9 9.5q-0.2 0-0.3 0.1z"/></svg>