<svg width="127" height="97" viewBox="0 0 127 97" fill="none" xmlns="http://www.w3.org/2000/svg">
<path d="M47.3938 18.5719C47.0873 17.1642 46.7644 15.8975 46.5404 14.6131C45.4836 8.54399 49.2037 2.89122 55.2106 1.43558C57.1647 0.961776 59.1189 0.449631 61.1006 0.134675C66.9522 -0.797868 72.6966 3.21439 73.9485 9.01506C74.1643 10.0174 74.4144 11.0116 74.6741 12.1126C75.3888 11.9592 76.0374 11.8332 76.6806 11.6812C90.25 8.47553 103.818 5.26572 117.387 2.06412C118.12 1.89158 118.862 1.69713 119.607 1.65194C121.924 1.5109 123.624 2.95011 123.963 5.26161C124.248 7.19927 122.853 9.152 120.768 9.64908C115.36 10.939 109.946 12.2057 104.534 13.4806C96.3201 15.4155 88.1075 17.3477 79.8936 19.2826C67.4648 22.2117 55.036 25.1422 42.6072 28.0713C34.4758 29.987 26.3443 31.8987 18.2128 33.813C13.888 34.8318 9.56737 35.8644 5.23846 36.8667C2.80602 37.4309 0.644316 36.1588 0.116601 33.9007C-0.423482 31.5864 0.952142 29.5146 3.42443 28.9312C17.538 25.5982 31.6517 22.2679 45.7667 18.9375C46.2792 18.817 46.7932 18.7061 47.3924 18.5719H47.3938ZM66.7296 14.0133C66.441 12.8315 66.2019 11.747 65.9091 10.6775C65.4103 8.85621 63.7694 7.83329 61.921 8.22219C60.2816 8.56727 58.6489 8.94522 57.0314 9.38068C55.7108 9.73535 54.6746 10.6117 54.654 11.9811C54.6306 13.5258 55.0127 15.0773 55.2312 16.7164C59.1712 15.7893 62.8871 14.9157 66.7309 14.0119L66.7296 14.0133Z" fill="#FFA133"/>
<path d="M108.437 57.0014H127V64.67H116.248C116.248 65.076 116.248 65.3987 116.248 65.7227C116.248 72.1567 116.258 78.5921 116.246 85.0261C116.233 91.0582 111.385 96.3711 105.377 96.9563C104.962 96.9973 104.541 96.9986 104.122 96.9986C76.5731 97 49.0238 97 21.476 97C15.5645 97 10.5172 92.7945 9.49259 86.9908C9.36229 86.2552 9.31018 85.4978 9.30881 84.7513C9.29509 78.428 9.30057 72.1048 9.30057 65.7815V64.7014H0V57.0027H17.0527C17.0527 57.3719 17.0527 57.7232 17.0527 58.0732C17.0527 66.8192 17.0527 75.5665 17.0527 84.3124C17.0527 87.4515 18.8905 89.2754 22.0534 89.2754C49.2117 89.2754 76.3687 89.2548 103.527 89.3095C106.193 89.315 108.515 87.3312 108.478 84.3494C108.37 75.5761 108.44 66.8014 108.44 58.0268C108.44 57.7014 108.44 57.3746 108.44 57L108.437 57.0014Z" fill="#FFA133"/>
</svg>
