<svg width="53" height="43" viewBox="0 0 53 43" fill="none" xmlns="http://www.w3.org/2000/svg">
<path d="M31.5754 42.5401V28.1783C31.5754 22.1184 32.2407 16.8464 33.5715 12.3621C34.9023 7.8778 36.9589 3.7571 39.7414 0H52.9885C49.9641 3.8783 47.605 7.87779 45.9113 11.9985C44.2176 15.998 43.3708 19.7551 43.3708 23.2698H52.8071V42.5401H31.5754ZM0 42.5401V28.1783C0 22.2396 0.604892 17.0282 1.81468 12.5439C3.14544 7.93839 5.20207 3.7571 7.98458 0H21.4132C18.3887 3.8783 16.0296 7.87779 14.3359 11.9985C12.6422 15.998 11.7954 19.7551 11.7954 23.2698H21.2317V42.5401H0Z" fill="white"/>
</svg>
